<svg xmlns="http://www.w3.org/2000/svg" viewBox="0 0 119.5 130.3"><path d="M47.3 3.3c7.7-4.5 17.3-4.5 25 0L107 23.4c7.7 4.5 12.5 12.7 12.5 21.7v40.1c0 8.9-4.8 17.2-12.5 21.7L72.2 127c-7.7 4.5-17.3 4.5-25 0l-34.8-20.1C4.8 102.4 0 94.1 0 85.2V45.1c0-8.9 4.8-17.2 12.5-21.7L47.3 3.3z" fill="#fff"/><path d="M119.5 84.7v.5c0 8.9-4.8 17.2-12.5 21.7L72.2 127c-7.7 4.5-17.3 4.5-25 0l-34.8-20.1c-.6-.3-1.1-.7-1.7-1.1l-2.6-8.7 8.5-33 7.5-12 22 22.5 27-40 46.4 50.1z" fill="#066c61"/><path d="M8.9 104.3c-3.5-3-6.2-6.9-7.6-11.2v-.5c1.2-13 6.2-39.7 17-42.5 14-3.6 21 42.5 21 42.5s6.2-64.2 25.5-63c15.5 1 21.5 33 17.5 91.5l-10 5.8c-3.4 2-7.1 3.1-10.9 3.3 7-12.1 6.3-60.1 2.9-77.6-2 5.5-3.6 14-5.3 23.2-3.8 20.7-8.3 44.9-19.7 45.8-.4 0-.8 0-1.3-.1l-3.8-2.2c-7.2-7-12.8-28.4-15-40.3-.4 10.7-4.4 23-6.5 27.9l-.3-.2c-.3-.2-.5-.3-.8-.5l-2.7-1.9z" fill="#b3dbc9"/></svg>